# xmcd
#
# Track frame offsets:
#	150
#	17871
#	35617
#	61361
#	71718
#	81264
#	93869
#	116318
#	129112
#	139835
#	159123
#	185995
#	196048
#	215439
#	239320
#
# Disc length: 3372 seconds
#
# Revision: 1
# Processed by: cddbd v1.5.2PL0 Copyright (c) Steve Scherf et al.
# Submitted via: EZCDAudioConverter 8.0.7.1
#
DISCID=c90d2a0f
DTITLE=Sergio Bap - Hard Blues
DYEAR=2006
DGENRE=Blues
TTITLE0=Bicuda Hill
TTITLE1=Texas Ranger
TTITLE2=The Cat
TTITLE3=Overture
TTITLE4=Kitungo Blues
TTITLE5=Water Melon
TTITLE6=Guga's Smash
TTITLE7=Bike Walking
TTITLE8=Guitar Race
TTITLE9=Apallosa
TTITLE10=Stormy Sunday
TTITLE11=Highway 040
TTITLE12=Last Dance
TTITLE13=Alecrim Street
TTITLE14=Martin L. King Tribute
EXTD=
EXTT0=
EXTT1=
EXTT2=
EXTT3=
EXTT4=
EXTT5=
EXTT6=
EXTT7=
EXTT8=
EXTT9=
EXTT10=
EXTT11=
EXTT12=
EXTT13=
EXTT14=
PLAYORDER=
